<?xml version="1.0" standalone="no"?>
<!DOCTYPE svg PUBLIC "-//W3C//DTD SVG 20010904//EN"
 "http://www.w3.org/TR/2001/REC-SVG-20010904/DTD/svg10.dtd">
<svg version="1.0" xmlns="http://www.w3.org/2000/svg"
 width="654.000000pt" height="682.000000pt" viewBox="0 0 654.000000 682.000000"
 preserveAspectRatio="xMidYMid meet">

<g transform="translate(0.000000,682.000000) scale(0.100000,-0.100000)"
fill="#000000" stroke="none">
<path d="M3820 6696 c-98 -27 -183 -91 -352 -265 -241 -247 -340 -287 -548
-221 -52 16 -103 30 -112 30 -42 0 -4 -88 89 -209 157 -203 380 -378 608 -477
l64 -28 6 -65 c3 -37 10 -88 14 -116 5 -27 8 -51 6 -53 -2 -2 -28 -6 -59 -9
l-55 -6 -84 83 c-92 89 -220 185 -295 220 -26 13 -93 32 -150 43 -170 34 -246
7 -302 -106 -41 -83 -55 -176 -42 -275 6 -42 9 -78 8 -79 -2 -2 -46 17 -99 42
-126 60 -212 78 -352 73 -166 -6 -216 -39 -271 -184 -22 -57 -27 -87 -28 -169
-2 -171 47 -314 149 -437 30 -37 55 -71 55 -76 0 -5 -30 -37 -66 -73 -77 -75
-309 -329 -374 -409 -25 -30 -74 -87 -110 -125 -164 -177 -230 -255 -230 -271
0 -14 8 -16 58 -11 60 6 218 55 258 82 37 24 38 18 2 -31 -62 -87 -255 -299
-476 -523 -122 -123 -219 -228 -215 -234 12 -20 156 -1 266 36 59 19 107 34
107 32 0 -4 -166 -265 -245 -385 -34 -52 -68 -106 -75 -120 -7 -14 -33 -56
-58 -94 l-45 -68 -76 6 c-42 4 -184 7 -317 7 -200 1 -246 -2 -271 -15 -52 -26
-59 -83 -15 -112 23 -16 52 -19 209 -22 l182 -4 16 -56 c40 -144 139 -391 208
-518 103 -191 320 -468 511 -652 94 -90 332 -275 442 -343 145 -90 308 -173
419 -215 608 -226 1075 -276 1661 -174 174 30 395 93 564 161 30 12 84 33 120
47 118 46 371 190 480 272 19 15 71 53 115 85 96 70 320 287 419 406 232 279
390 572 482 894 l27 97 176 -6 c164 -7 178 -6 207 12 51 33 50 84 -2 119 -25
16 -65 19 -399 24 -203 4 -512 7 -686 8 -174 0 -330 4 -346 7 l-29 6 -37 230
c-21 127 -36 233 -33 235 2 2 43 -10 92 -26 49 -17 123 -35 164 -42 108 -17
276 -6 375 23 105 31 233 114 306 198 95 111 93 110 146 110 26 0 66 5 88 10
103 23 228 266 271 525 9 58 20 105 23 105 3 0 30 -9 60 -20 29 -12 61 -20 70
-18 9 2 -6 12 -34 22 -101 37 -94 22 -94 224 -1 161 -4 198 -36 370 -38 211
-60 276 -128 379 -59 89 -104 136 -208 216 -107 82 -179 121 -339 188 -127 52
-432 152 -505 164 -22 4 -92 20 -155 35 -160 39 -425 87 -552 100 -167 17
-487 40 -550 40 -50 0 -57 3 -63 23 -4 12 -18 50 -31 84 -13 34 -24 66 -24 71
0 5 35 15 78 22 42 7 98 20 124 30 65 25 173 103 210 153 17 23 72 128 123
232 51 105 102 198 112 208 11 10 47 22 80 28 83 15 88 19 74 62 -8 24 -30 49
-67 78 -39 30 -63 59 -84 101 -69 138 -179 238 -309 278 -73 23 -218 26 -291
6z m333 -84 c114 -56 188 -135 217 -231 18 -62 18 -102 -1 -126 -4 -6 -4 -17
0 -24 13 -21 -3 -71 -42 -132 -19 -31 -67 -121 -105 -200 -74 -154 -129 -223
-215 -273 -107 -62 -302 -79 -437 -37 -180 55 -436 239 -575 416 -22 28 -47
55 -55 62 -12 10 -9 12 21 13 38 0 123 14 150 25 13 5 17 -2 22 -34 6 -48 58
-116 107 -141 19 -10 52 -31 72 -48 83 -65 254 -80 398 -33 63 21 67 24 113
95 72 109 76 192 14 263 -42 48 -99 72 -190 79 -89 8 -138 -3 -243 -52 -42
-19 -80 -34 -84 -32 -5 2 20 27 55 56 35 29 81 74 101 100 66 83 215 222 268
249 86 44 125 53 227 50 90 -2 100 -4 182 -45z m-468 -386 c70 -18 93 -32 115
-69 25 -40 25 -45 -1 -49 -17 -2 -22 -11 -23 -45 -2 -27 2 -40 8 -36 6 3 1 -5
-11 -17 -18 -19 -25 -21 -37 -11 -13 11 -17 9 -27 -12 -6 -14 -17 -23 -24 -21
-7 3 -16 1 -19 -5 -4 -6 -13 -8 -20 -5 -7 3 -16 -2 -19 -10 -4 -10 -17 -16
-34 -15 l-28 1 27 7 c21 4 25 10 19 20 -8 12 -13 12 -33 -1 -32 -21 -117 -32
-151 -19 -16 6 -26 15 -23 19 2 4 -3 8 -13 9 -31 2 -114 60 -149 102 -19 23
-38 38 -43 35 -5 -3 -9 -2 -9 3 0 4 17 15 38 24 54 25 244 96 267 102 41 10
142 6 190 -7z m-671 -734 c114 -41 319 -192 301 -222 -3 -6 -24 -10 -45 -10
-33 0 -48 8 -102 56 -76 67 -256 160 -329 170 -50 7 -63 18 -31 28 35 10 149
-2 206 -22z m692 -48 c7 -34 19 -75 28 -92 22 -42 21 -44 -21 -40 -31 3 -38 8
-48 38 -7 19 -15 63 -19 98 l-7 63 27 -3 c25 -3 29 -9 40 -64z m152 -206 c20
-20 14 -28 -23 -28 -38 0 -46 13 -17 29 22 13 26 13 40 -1z m132 -11 c0 -19
-21 -37 -42 -37 -18 0 -25 29 -11 43 12 12 53 7 53 -6z m-365 -27 c-3 -5 -10
-10 -16 -10 -5 0 -9 5 -9 10 0 6 7 10 16 10 8 0 12 -4 9 -10z m94 -11 c-14 -8
-29 -3 -29 11 0 4 9 6 21 3 15 -4 17 -8 8 -14z m669 -24 c507 -63 1068 -212
1369 -363 140 -71 288 -195 351 -295 47 -75 59 -109 71 -210 5 -43 14 -84 20
-91 34 -41 46 -459 18 -641 -27 -174 -75 -315 -134 -393 -49 -65 -56 -16 -19
130 42 164 69 480 57 673 -9 139 -37 280 -51 253 -5 -7 -18 -121 -30 -253 -45
-501 -75 -636 -167 -757 -44 -56 -132 -117 -224 -153 -86 -34 -311 -75 -412
-75 -70 0 -91 4 -145 30 -76 36 -148 84 -183 122 -29 31 -54 35 -86 13 -14
-10 -24 -12 -28 -5 -12 19 -35 10 -35 -14 0 -23 -5 -25 -87 -36 -174 -23 -514
-104 -707 -168 -158 -52 -330 -156 -477 -289 -36 -32 -80 -71 -98 -86 -32 -27
-33 -29 -16 -45 13 -13 19 -14 22 -4 3 6 11 12 19 12 8 0 26 7 40 16 22 15 47
16 187 11 192 -6 343 4 527 37 74 14 222 39 329 56 107 17 212 37 233 44 43
15 44 14 23 -44 -18 -51 -18 -66 0 -26 11 26 13 27 18 10 7 -24 97 -550 97
-569 0 -7 -15 -15 -32 -19 -87 -15 -728 -61 -1068 -76 -210 -9 -894 -5 -986 6
l-42 5 34 67 c19 37 43 96 55 132 11 36 29 84 40 108 10 23 19 46 19 50 -1 13
-33 -52 -70 -143 -21 -49 -50 -118 -65 -152 l-28 -63 -74 0 c-56 0 -74 3 -70
13 10 22 113 271 129 313 l17 41 -26 -5 c-18 -3 -23 -9 -20 -23 3 -11 1 -17
-3 -14 -5 3 -11 -4 -15 -15 -11 -34 -28 -23 -21 13 l6 32 -27 -42 c-16 -22
-57 -100 -93 -172 l-64 -131 -58 0 c-31 0 -59 4 -62 8 -8 14 22 115 59 196 19
43 35 80 35 84 0 12 -59 -63 -60 -75 -1 -33 -67 -122 -91 -123 -15 0 -31 63
-26 99 9 68 146 371 266 589 22 39 37 72 33 72 -4 0 -24 -21 -45 -47 -20 -27
-62 -73 -93 -103 -86 -85 -168 -209 -274 -413 -14 -27 -38 -58 -54 -70 l-29
-21 7 77 c6 65 5 77 -8 77 -9 0 -23 15 -32 32 -10 18 -26 45 -37 60 -16 22
-19 37 -14 83 10 97 43 233 106 440 17 55 32 117 34 137 1 21 7 38 12 38 6 0
4 4 -4 9 -9 6 -12 18 -7 37 4 19 3 24 -2 16 -5 -8 -18 -12 -28 -10 -25 5 -98
-111 -213 -342 -96 -192 -203 -387 -223 -404 -6 -6 -6 -3 2 7 12 16 12 18 -1
16 -7 -2 -31 0 -51 4 -34 7 -37 10 -33 39 2 17 8 34 12 37 4 3 9 11 10 16 1 6
26 62 56 125 30 63 66 142 80 175 14 33 60 132 102 220 43 88 99 205 125 260
26 55 95 197 152 315 126 258 123 250 96 245 -17 -4 -19 -1 -13 22 3 14 28 58
54 97 26 39 61 90 76 114 15 23 54 72 87 109 32 36 58 71 58 78 0 6 10 16 23
22 41 19 82 60 156 157 l73 96 -54 68 c-30 37 -89 112 -130 168 -137 181 -250
266 -401 299 -42 9 -75 20 -72 25 10 17 118 23 200 11 98 -14 207 -49 284 -92
74 -41 351 -239 351 -250 0 -5 7 -9 15 -9 11 0 15 12 15 52 0 47 -3 54 -40 89
-22 21 -40 40 -40 43 0 2 48 23 108 46 59 23 128 50 153 60 53 22 220 63 330
80 74 12 76 12 113 -14 40 -27 71 -32 96 -16 8 5 19 5 25 0 12 -10 167 -6 201
5 12 4 25 2 28 -4 12 -19 84 -13 106 9 11 11 20 25 20 32 0 13 179 5 358 -17z
m-2274 -290 c29 -38 99 -137 154 -220 103 -151 140 -199 164 -208 7 -2 10 -8
6 -12 -11 -12 -167 24 -218 50 -88 44 -175 163 -206 278 -14 54 -19 208 -7
220 9 10 47 -28 107 -108z m3603 -1954 c-50 -45 -93 -68 -202 -106 -67 -24
-99 -29 -200 -31 -66 -2 -111 -1 -100 3 30 8 45 23 45 44 0 14 9 21 30 26 39
7 51 26 14 21 -15 -1 -29 2 -31 7 -2 6 35 9 103 7 120 -4 208 9 304 43 86 31
86 31 37 -14z m-692 -81 c15 -6 25 -13 22 -16 -6 -6 -67 23 -67 32 0 3 4 3 9
0 4 -3 21 -10 36 -16z m162 -46 c-3 -3 -12 -4 -19 -1 -8 3 -5 6 6 6 11 1 17
-2 13 -5z m-23 -684 c60 -5 250 -10 423 -10 172 0 313 -4 313 -8 0 -16 -99
-301 -130 -371 -84 -194 -210 -388 -401 -617 -166 -198 -420 -395 -674 -522
l-120 -60 -147 4 c-108 4 -148 2 -148 -6 0 -15 -1602 -7 -1670 8 -25 6 -88 13
-140 17 -52 3 -112 10 -133 16 -20 5 -41 7 -46 5 -5 -3 -14 1 -21 9 -8 10 -30
15 -61 15 -29 0 -49 5 -49 11 0 6 -9 18 -19 27 -11 10 -22 28 -26 42 -5 19 -4
22 4 10 7 -10 11 -11 11 -2 0 6 7 12 15 12 8 0 15 5 15 10 0 6 19 10 43 10 23
0 51 6 62 13 13 8 41 12 78 9 47 -3 57 -7 57 -22 0 -24 46 -32 190 -34 137 -1
262 11 273 27 6 9 10 9 14 0 6 -17 40 -17 46 0 3 9 11 9 38 -2 39 -15 40 -15
132 -13 64 2 67 3 67 26 0 18 6 25 23 28 23 3 -325 12 -403 10 -25 0 -63 -3
-85 -6 -76 -11 -253 -12 -249 -1 3 6 -82 11 -243 13 -137 1 -284 6 -328 10
-44 4 -88 6 -97 4 -19 -4 -26 -42 -8 -42 6 0 10 -5 10 -11 0 -8 -4 -9 -13 0
-8 6 -17 8 -21 4 -3 -4 -12 2 -20 12 -8 12 -20 16 -34 12 -12 -3 -25 0 -29 5
-3 7 -1 8 5 4 7 -4 12 -2 12 3 0 11 -2 12 -36 16 -30 3 -74 35 -176 128 -85
77 -101 101 -57 90 12 -3 25 0 29 7 6 9 56 16 172 22 226 11 228 17 5 15 -132
-2 -190 -6 -195 -14 -5 -8 -19 -9 -46 -3 -41 9 -101 61 -152 131 -16 22 -56
72 -88 112 -120 145 -236 340 -305 512 -43 109 -106 313 -98 321 2 2 89 -20
193 -50 454 -130 997 -190 1984 -217 416 -11 659 -7 1160 17 653 32 1031 87
1074 156 15 25 -16 53 -84 76 -33 11 -56 26 -58 35 -3 13 3 16 25 12 15 -3 77
-9 137 -15z m-3444 -1390 c0 -5 6 -10 14 -10 7 0 19 -7 26 -15 7 -9 20 -13 28
-10 8 3 23 -2 33 -11 18 -17 17 -34 -2 -34 -6 0 -7 5 -4 10 3 6 -1 10 -9 10
-14 0 -106 57 -106 66 0 2 5 4 10 4 6 0 10 -4 10 -10z m980 -10 c0 -11 -4 -20
-10 -20 -5 0 -10 9 -10 20 0 11 5 20 10 20 6 0 10 -9 10 -20z m-820 -91 c0 -5
9 -9 20 -9 11 0 20 -4 20 -10 0 -5 6 -10 14 -10 8 0 16 -6 19 -14 6 -16 -48
10 -93 44 -24 19 -24 19 -2 13 12 -3 22 -9 22 -14z m120 -29 c0 -11 5 -20 10
-20 6 0 10 -8 9 -17 0 -12 -2 -13 -6 -5 -3 7 -16 17 -29 22 -29 11 -32 40 -4
40 13 0 20 -7 20 -20z m85 -57 c4 -25 10 -33 21 -29 8 3 13 2 10 -3 -8 -12 49
-34 86 -33 31 1 74 -27 46 -29 -26 -3 -44 3 -110 33 -37 17 -65 35 -62 39 5 9
-7 12 -36 10 -9 0 -10 2 -3 5 8 4 9 13 3 28 -7 20 -6 22 15 18 17 -3 25 -13
30 -39z m-90 17 c3 -6 -1 -7 -9 -4 -18 7 -21 14 -7 14 6 0 13 -4 16 -10z m202
-66 c-3 -3 -12 -4 -19 -1 -8 3 -5 6 6 6 11 1 17 -2 13 -5z m156 -86 c-2 -5 5
-8 16 -8 11 0 23 -5 27 -11 7 -12 -16 -7 -71 16 l-30 12 32 -1 c17 -1 29 -4
26 -8z m287 -89 c17 -6 10 -7 -20 -3 -25 3 -49 10 -55 16 -10 9 22 4 75 -13z
m1170 -39 c-63 -14 -135 -22 -127 -14 9 9 84 21 132 22 29 0 29 0 -5 -8z
m-197 -27 c-7 -2 -21 -2 -30 0 -10 3 -4 5 12 5 17 0 24 -2 18 -5z m-570 -10
c-7 -2 -21 -2 -30 0 -10 3 -4 5 12 5 17 0 24 -2 18 -5z"/>
<path d="M4002 6424 c-38 -30 -62 -72 -62 -109 0 -41 30 -95 64 -116 35 -22
111 -25 151 -7 62 28 90 145 49 201 -47 63 -143 77 -202 31z m92 -50 c32 -32
5 -94 -41 -94 -18 0 -53 37 -53 55 0 21 36 55 59 55 11 0 27 -7 35 -16z"/>
<path d="M3401 4723 c-24 -9 -65 -36 -91 -62 -40 -38 -52 -59 -70 -121 -13
-41 -29 -82 -37 -92 -13 -14 -12 -17 6 -23 12 -4 33 -31 51 -70 59 -124 160
-181 308 -173 94 5 161 32 246 100 44 35 68 48 92 48 18 0 35 3 38 8 2 4 -7
25 -20 47 -13 22 -40 72 -59 112 -42 86 -122 168 -207 212 -53 27 -70 31 -137
30 -42 0 -96 -8 -120 -16z m211 -109 c76 -39 21 -169 -72 -169 -71 0 -121 69
-95 131 25 60 94 75 167 38z"/>
<path d="M5660 4393 c-64 -21 -90 -56 -90 -125 0 -86 65 -148 156 -148 89 0
139 62 114 143 -18 60 -44 92 -93 116 -43 21 -59 24 -87 14z"/>
<path d="M3240 3661 c-103 -32 -237 -145 -298 -252 -34 -59 -67 -171 -58 -195
12 -31 38 -8 139 129 58 78 138 174 176 212 39 39 78 80 86 93 14 20 14 22 -2
21 -10 0 -29 -4 -43 -8z"/>
<path d="M2496 3412 c-4 -7 -16 -10 -26 -7 -54 17 -245 -290 -286 -460 -28
-122 -11 -151 55 -94 36 31 64 68 41 54 -6 -3 -7 1 -4 9 3 9 11 13 17 9 5 -3
7 -1 4 4 -7 11 97 242 173 386 23 42 40 85 38 95 -3 13 -5 14 -12 4z"/>
<path d="M2249 2853 c-13 -16 -12 -17 4 -4 16 13 21 21 13 21 -2 0 -10 -8 -17
-17z"/>
<path d="M2225 2820 c-3 -5 -2 -10 4 -10 5 0 13 5 16 10 3 6 2 10 -4 10 -5 0
-13 -4 -16 -10z"/>
<path d="M2986 2533 c-6 -14 -5 -15 5 -6 7 7 10 15 7 18 -3 3 -9 -2 -12 -12z"/>
<path d="M3498 2533 c6 -2 18 -2 25 0 6 3 1 5 -13 5 -14 0 -19 -2 -12 -5z"/>
<path d="M1620 2479 c0 -5 4 -8 9 -5 5 4 12 0 14 -6 3 -8 6 -6 6 5 1 9 -6 17
-14 17 -8 0 -15 -5 -15 -11z"/>
<path d="M2676 2373 c-6 -14 -5 -15 5 -6 7 7 10 15 7 18 -3 3 -9 -2 -12 -12z"/>
<path d="M2896 2365 c-9 -26 -7 -32 5 -12 6 10 9 21 6 23 -2 3 -7 -2 -11 -11z"/>
<path d="M2887 2015 c-21 -43 -21 -45 -2 -45 8 0 17 14 21 35 9 48 1 52 -19
10z"/>
<path d="M1723 1013 c9 -2 23 -2 30 0 6 3 -1 5 -18 5 -16 0 -22 -2 -12 -5z"/>
<path d="M4190 1010 c20 -13 130 -13 130 0 0 6 -31 10 -72 10 -51 0 -68 -3
-58 -10z"/>
<path d="M2471 751 c-8 -5 5 -7 35 -4 27 3 51 7 53 9 9 8 -75 3 -88 -5z"/>
<path d="M4920 749 c0 -5 5 -7 10 -4 6 3 10 8 10 11 0 2 -4 4 -10 4 -5 0 -10
-5 -10 -11z"/>
<path d="M3320 740 c0 -9 118 -3 129 6 2 2 -26 4 -62 4 -37 0 -67 -4 -67 -10z"/>
<path d="M3246 705 c4 -9 19 -15 40 -15 24 0 34 5 34 15 0 11 -11 15 -40 15
-31 0 -38 -3 -34 -15z"/>
<path d="M447 2891 c-17 -9 -41 -33 -52 -53 -18 -35 -19 -38 -3 -72 22 -44 56
-67 111 -73 54 -6 101 16 122 58 20 37 15 53 -30 103 -44 48 -98 62 -148 37z
m107 -50 c21 -22 27 -36 24 -62 -3 -33 -5 -34 -49 -37 -76 -5 -119 50 -78 101
28 36 67 35 103 -2z"/>
<path d="M6169 2617 c-40 -27 -79 -82 -79 -111 0 -12 11 -38 25 -58 24 -35 41
-43 110 -51 69 -8 145 56 145 122 0 95 -120 153 -201 98z m115 -66 c25 -28 16
-53 -27 -76 -44 -24 -70 -14 -75 29 -7 57 64 89 102 47z"/>
<path d="M278 2601 c-28 -25 -32 -34 -30 -71 4 -57 17 -79 57 -96 65 -27 161
-9 184 34 22 41 13 73 -33 118 -40 41 -47 44 -95 44 -42 0 -56 -5 -83 -29z
m143 -37 c11 -10 19 -31 19 -50 0 -30 -3 -34 -34 -40 -55 -10 -92 3 -110 39
-15 31 -15 33 11 56 21 18 34 22 61 17 19 -3 43 -13 53 -22z"/>
</g>
</svg>
